<?xml version="1.0" encoding="UTF-8"?>
<svg id="Ebene_1" xmlns="http://www.w3.org/2000/svg" xmlns:xlink="http://www.w3.org/1999/xlink" viewBox="0 0 993.37 183.34">
  <defs>
    <style>
      .cls-1, .cls-2 {
        stroke: #bd34fe;
        stroke-miterlimit: 10;
      }

      .cls-2 {
        fill: url(#Unbenannter_Verlauf_10-4);
      }

      .cls-3 {
        fill: url(#Unbenannter_Verlauf_10-2);
      }

      .cls-4 {
        fill: url(#Unbenannter_Verlauf_10-3);
      }

      .cls-5 {
        fill: url(#Unbenannter_Verlauf_10-5);
      }

      .cls-6 {
        fill: url(#Unbenannter_Verlauf_14);
      }

      .cls-7 {
        fill: url(#Unbenannter_Verlauf_15);
      }

      .cls-8 {
        fill: url(#Unbenannter_Verlauf_13);
      }

      .cls-9 {
        fill: url(#Unbenannter_Verlauf_10);
      }
    </style>
    <linearGradient id="Unbenannter_Verlauf_14" data-name="Unbenannter Verlauf 14" x1="59.29" y1="91.93" x2="61.86" y2="129.4" gradientUnits="userSpaceOnUse">
      <stop offset="0" stop-color="#bd34fe"/>
      <stop offset=".46" stop-color="#8a7afe"/>
      <stop offset=".79" stop-color="#67a9fe"/>
      <stop offset=".99" stop-color="#57c1fe"/>
    </linearGradient>
    <linearGradient id="Unbenannter_Verlauf_13" data-name="Unbenannter Verlauf 13" x1="211.08" y1="42.29" x2="211.08" y2="148.77" gradientUnits="userSpaceOnUse">
      <stop offset=".46" stop-color="#bd34fe"/>
      <stop offset="1" stop-color="#57c1fe"/>
    </linearGradient>
    <linearGradient id="Unbenannter_Verlauf_10" data-name="Unbenannter Verlauf 10" x1="573.74" y1="51.39" x2="573.74" y2="181.57" gradientUnits="userSpaceOnUse">
      <stop offset="0" stop-color="#bd34fe"/>
      <stop offset="1" stop-color="#57c1fe"/>
    </linearGradient>
    <linearGradient id="Unbenannter_Verlauf_10-2" data-name="Unbenannter Verlauf 10" x1="414.43" y1="74.04" x2="413.16" y2="170.83" xlink:href="#Unbenannter_Verlauf_10"/>
    <linearGradient id="Unbenannter_Verlauf_10-3" data-name="Unbenannter Verlauf 10" x1="558.58" x2="558.58" y2="184.91" xlink:href="#Unbenannter_Verlauf_10"/>
    <linearGradient id="Unbenannter_Verlauf_15" data-name="Unbenannter Verlauf 15" x1="832.16" y1="38.98" x2="826.93" y2="193.69" gradientUnits="userSpaceOnUse">
      <stop offset="0" stop-color="#bd34fe"/>
      <stop offset=".14" stop-color="#b440fe"/>
      <stop offset=".4" stop-color="#9c60fe"/>
      <stop offset=".74" stop-color="#7794fe"/>
      <stop offset="1" stop-color="#57c1fe"/>
    </linearGradient>
    <linearGradient id="Unbenannter_Verlauf_10-4" data-name="Unbenannter Verlauf 10" x1="925.67" y1="51.39" x2="925.67" y2="170.77" xlink:href="#Unbenannter_Verlauf_10"/>
    <linearGradient id="Unbenannter_Verlauf_10-5" data-name="Unbenannter Verlauf 10" x1="724.15" y1="43.37" x2="719.03" y2="194.32" xlink:href="#Unbenannter_Verlauf_10"/>
  </defs>
  <g>
    <path d="M87.61,27.89c28.58,0,42.64,19.68,42.64,45.46,0,12.71-3.53,22.74-10.41,29.37-4.41,4.12-8.12,6.09-16.76,8.95,9,2.86,13.06,6.98,18.7,19.7,2.65,5.73,5.12,11.82,13.06,31.16,1.94,5.01,4.06,9.49,8.47,18.98h-41.29c-1.06-5.73-3.18-13.07-8.65-27.93-5.65-15.58-7.76-19.7-12.17-23.64-3.71-3.4-8.12-4.84-13.76-4.84h-18v29.37c0,12.18.35,18.8,1.41,27.04H12.92c1.06-8.24,1.41-13.61,1.41-26.86V58.31c0-11.1-.59-46.8-1.65-55.4M76.97,94.48c10.41,0,16.76-6.45,16.76-16.65s-5.65-15.22-16.59-15.22h-27.7v31.88h27.52Z"/>
    <path d="M257.99,181.51c-1.41-8.6-2.47-13.25-4.23-19.34l-4.76-15.22h-50.29l-4.76,15.22c-2.29,7.16-3.53,12.71-4.41,19.34h-41.29c2.65-5.37,4.23-9.67,8.47-21.85l38.11-107.8c3.18-8.77,4.76-14.15,5.65-19.34L233.91.53c1.24,5.19,15.09,41.84,18.61,51.33l38.29,107.8c3.35,9.49,6.18,16.83,8.47,21.85h-41.29ZM223.59,63.14l-16.41,53.72h33.17l-16.76-53.72Z"/>
    <path d="M350.27,32.52c-1.06,7.34-1.41,13.43-1.41,26.5v95.98c0,12.36.35,18.98,1.41,26.5h-38.82c1.06-6.98,1.41-14.5,1.41-26.5V59.02c0-13.43-.35-18.62-1.41-26.5h38.82ZM350.65,9.05c-1.06.87-1.41,1.59-1.41,3.14v11.37c0,1.46.35,2.25,1.41,3.14h-38.82c1.06-.83,1.41-1.72,1.41-3.14v-11.37c0-1.59-.35-2.21-1.41-3.14h38.82ZM861.4,10.46c-1.06.87-1.41,1.59-1.41,3.14v11.37c0,1.46.35,2.25,1.41,3.14h-38.82c1.06-.83,1.41-1.72,1.41-3.14v-11.37c0-1.59-.35-2.21-1.41-3.14h38.82Z"/>
    <path d="M398.26,181.51c-12.17,0-19.41.18-26.11.54,1.06-6.27,1.41-14.15,1.41-26.14V61.35c0-12.54-.35-20.24-1.41-28.83h38.46c-1.23,9.31-1.41,14.33-1.41,28.29v88.82h42.7c15,0,21-.18,29.29-1.25v34.38c-6.53-.9-15.17-1.25-29.29-1.25h-53.64Z"/>
    <path d="M593.41,181.51c-.71-5.73-1.94-12-3.71-19.16l-13.41-52.65c-1.77-6.98-3.18-15.22-4.94-27.04-1.06,7.34-3.18,18.62-5.29,27.04l-13.06,52.83c-2.29,8.95-3.35,14.15-3.88,18.98h-35.11c-.88-5.19-1.76-8.95-4.41-19.34l-28.23-107.44c-2.47-9.13-4.94-17.37-6.7-22.2h40.23c.18,6.45,1.06,12.18,2.47,19.7l11.29,54.44c.53,2.69,1.76,11.1,3.88,25.25,2.65-15.04,3.88-21.49,4.94-25.25l14.11-55.51c2.12-8.06,3.18-13.61,3.88-18.62h31.41c.71,4.66,1.76,9.67,4.06,18.09l14.29,55.15c1.41,5.73,2.65,11.64,4.94,26.14q.35-3.4,1.41-10.92c.53-3.94,1.76-12.54,2.47-15.4l11.12-53.36c1.76-8.24,2.47-13.43,2.65-19.7h40.05c-1.76,4.83-4.23,13.25-6.53,22.2l-28.23,107.26c-2.29,8.42-3.88,15.22-4.41,19.52h-35.29Z"/>
    <path d="M861.95,32.52c-1.06,7.34-1.41,13.43-1.41,26.5v95.98c0,12.36.35,18.98,1.41,26.5h-38.82c1.06-6.98,1.41-14.5,1.41-26.5V59.02c0-13.43-.35-18.62-1.41-26.5h38.82Z"/>
    <path class="cls-1" d="M909.94,181.51c-12.17,0-19.41.18-26.11.54,1.06-6.27,1.41-14.15,1.41-26.14V61.35c0-12.54-.35-20.24-1.41-28.83h38.46c-1.24,9.31-1.41,14.33-1.41,28.29v88.82h42.7c15,0,21-.18,29.29-1.25v34.38c-6.53-.9-15.17-1.25-29.29-1.25h-53.64Z"/>
  </g>
  <path d="M766.4,180.98c-1.41-8.6-2.47-13.25-4.23-19.34l-4.76-15.22h-50.29l-4.76,15.22c-2.29,7.16-3.53,12.71-4.41,19.34h-41.29c2.65-5.37,4.23-9.67,8.47-21.85l38.11-107.8c3.18-8.77,4.76-14.15,5.65-19.34L742.31,0c1.24,5.19,15.09,41.84,18.61,51.33l38.29,107.8c3.35,9.49,6.18,16.83,8.47,21.85h-41.29ZM731.99,62.61l-16.41,53.72h33.17l-16.76-53.72Z"/>
  <g>
    <path class="cls-6" d="M74.93,27.89c28.58,0,42.64,19.68,42.64,45.46,0,12.71-3.53,22.74-10.41,29.37-4.41,4.12-8.12,6.09-16.76,8.95,9,2.86,13.06,6.98,18.7,19.7,2.65,5.73,5.12,11.82,13.06,31.16,1.94,5.01,4.06,9.49,8.47,18.98h-41.29c-1.06-5.73-3.18-13.07-8.65-27.93-5.65-15.58-7.76-19.7-12.17-23.64-3.71-3.4-8.12-4.84-13.76-4.84h-18v29.37c0,12.18.35,18.8,1.41,27.04H.23c1.06-8.24,1.41-13.61,1.41-26.86V58.31C1.65,47.2,1.06,11.5,0,2.91M64.28,94.48c10.41,0,16.76-6.45,16.76-16.65s-5.65-15.22-16.59-15.22h-27.7v31.88h27.52Z"/>
    <path class="cls-8" d="M245.31,181.51c-1.41-8.6-2.47-13.25-4.23-19.34l-4.76-15.22h-50.29l-4.76,15.22c-2.29,7.16-3.53,12.71-4.41,19.34h-41.29c2.65-5.37,4.23-9.67,8.47-21.85l38.11-107.8c3.18-8.77,4.76-14.15,5.65-19.34L221.23.53c1.24,5.19,15.09,41.84,18.61,51.33l38.29,107.8c3.35,9.49,6.18,16.83,8.47,21.85h-41.29ZM210.9,63.14l-16.41,53.72h33.17l-16.76-53.72Z"/>
    <path class="cls-9" d="M337.59,32.52c-1.06,7.34-1.41,13.43-1.41,26.5v95.98c0,12.36.35,18.98,1.41,26.5h-38.82c1.06-6.98,1.41-14.5,1.41-26.5V59.02c0-13.43-.35-18.62-1.41-26.5h38.82ZM337.97,9.05c-1.06.87-1.41,1.59-1.41,3.14v11.37c0,1.46.35,2.25,1.41,3.14h-38.82c1.06-.83,1.41-1.72,1.41-3.14v-11.37c0-1.59-.35-2.21-1.41-3.14h38.82ZM848.71,10.46c-1.06.87-1.41,1.59-1.41,3.14v11.37c0,1.46.35,2.25,1.41,3.14h-38.82c1.06-.83,1.41-1.72,1.41-3.14v-11.37c0-1.59-.35-2.21-1.41-3.14h38.82Z"/>
    <path class="cls-3" d="M385.58,181.51c-12.17,0-19.41.18-26.11.54,1.06-6.27,1.41-14.15,1.41-26.14V61.35c0-12.54-.35-20.24-1.41-28.83h38.46c-1.23,9.31-1.41,14.33-1.41,28.29v88.82h42.7c15,0,21-.18,29.29-1.25v34.38c-6.53-.9-15.17-1.25-29.29-1.25h-53.64Z"/>
    <path class="cls-4" d="M580.72,181.51c-.71-5.73-1.94-12-3.71-19.16l-13.41-52.65c-1.77-6.98-3.18-15.22-4.94-27.04-1.06,7.34-3.18,18.62-5.29,27.04l-13.06,52.83c-2.29,8.95-3.35,14.15-3.88,18.98h-35.11c-.88-5.19-1.76-8.95-4.41-19.34l-28.23-107.44c-2.47-9.13-4.94-17.37-6.7-22.2h40.23c.18,6.45,1.06,12.18,2.47,19.7l11.29,54.44c.53,2.69,1.76,11.1,3.88,25.25,2.65-15.04,3.88-21.49,4.94-25.25l14.11-55.51c2.12-8.06,3.18-13.61,3.88-18.62h31.41c.71,4.66,1.76,9.67,4.06,18.09l14.29,55.15c1.41,5.73,2.65,11.64,4.94,26.14q.35-3.4,1.41-10.92c.53-3.94,1.76-12.54,2.47-15.4l11.12-53.36c1.76-8.24,2.47-13.43,2.65-19.7h40.05c-1.76,4.83-4.23,13.25-6.53,22.2l-28.23,107.26c-2.29,8.42-3.88,15.22-4.41,19.52h-35.29Z"/>
    <path class="cls-7" d="M849.27,32.52c-1.06,7.34-1.41,13.43-1.41,26.5v95.98c0,12.36.35,18.98,1.41,26.5h-38.82c1.06-6.98,1.41-14.5,1.41-26.5V59.02c0-13.43-.35-18.62-1.41-26.5h38.82Z"/>
    <path class="cls-2" d="M897.26,181.51c-12.17,0-19.41.18-26.11.54,1.06-6.27,1.41-14.15,1.41-26.14V61.35c0-12.54-.35-20.24-1.41-28.83h38.46c-1.24,9.31-1.41,14.33-1.41,28.29v88.82h42.7c15,0,21-.18,29.29-1.25v34.38c-6.53-.9-15.17-1.25-29.29-1.25h-53.64Z"/>
  </g>
  <path class="cls-5" d="M753.72,180.98c-1.41-8.6-2.47-13.25-4.23-19.34l-4.76-15.22h-50.29l-4.76,15.22c-2.29,7.16-3.53,12.71-4.41,19.34h-41.29c2.65-5.37,4.23-9.67,8.47-21.85l38.11-107.8c3.18-8.77,4.76-14.15,5.65-19.34L729.63,0c1.24,5.19,15.09,41.84,18.61,51.33l38.29,107.8c3.35,9.49,6.18,16.83,8.47,21.85h-41.29ZM719.31,62.61l-16.41,53.72h33.17l-16.76-53.72Z"/>
</svg>