<?xml version="1.0" standalone="no"?>
<!DOCTYPE svg PUBLIC "-//W3C//DTD SVG 20010904//EN"
 "http://www.w3.org/TR/2001/REC-SVG-20010904/DTD/svg10.dtd">
<svg version="1.0" xmlns="http://www.w3.org/2000/svg"
 width="73.000000pt" height="16.000000pt" viewBox="0 0 73.000000 16.000000"
 preserveAspectRatio="xMidYMid meet">
<metadata>
Created by potrace 1.10, written by Peter Selinger 2001-2011
</metadata>
<g transform="translate(0.000000,16.000000) scale(0.100000,-0.100000)"
fill="#000000" stroke="none">
<path d="M0 80 l0 -80 365 0 365 0 0 40 c0 22 -4 40 -8 40 -5 0 -16 18 -25 40
l-15 40 -341 0 -341 0 0 -80z m77 55 c32 -14 35 -18 30 -45 -13 -62 6 -65 27
-4 29 80 47 81 73 2 l21 -63 1 63 c1 52 4 62 19 62 15 0 17 -8 14 -65 l-4 -65
-30 0 c-17 0 -37 8 -44 18 -13 16 -15 16 -28 0 -19 -26 -76 -24 -83 2 -7 26
-23 26 -23 0 0 -12 -7 -20 -17 -20 -15 0 -18 10 -18 65 0 72 3 74 62 50z m488
-48 l20 -62 3 63 c2 46 7 62 17 62 8 0 15 -4 15 -10 0 -5 11 -10 25 -10 23 0
25 -4 25 -44 0 -41 1 -43 25 -38 18 3 25 0 25 -12 0 -25 -157 -23 -176 2 -13
16 -15 16 -28 0 -7 -10 -20 -18 -29 -18 -14 0 -14 6 3 55 11 31 22 60 25 65
15 24 31 6 50 -53z m-255 -2 c0 -40 2 -45 21 -42 12 1 24 -4 26 -10 3 -9 -9
-13 -41 -13 l-46 0 0 55 c0 48 2 55 20 55 17 0 20 -7 20 -45z m75 23 l8 -23 4
23 c2 12 10 22 17 22 7 0 18 -10 24 -22 l11 -23 0 23 c1 15 7 22 21 22 11 0
18 -5 15 -12 -2 -7 -9 -32 -15 -55 -12 -48 -35 -57 -50 -20 l-9 22 0 -22 c-2
-41 -36 -28 -50 18 -7 23 -15 47 -18 55 -3 9 2 14 15 14 12 0 23 -9 27 -22z"/>
<path d="M621 70 l1 -45 11 33 c7 24 7 36 -1 44 -9 9 -12 1 -11 -32z"/>
</g>
</svg>
